<mxfile host="65bd71144e" modified="2021-03-03T09:30:52.391Z" agent="5.0 (Windows NT 10.0; Win64; x64) AppleWebKit/537.36 (KHTML, like Gecko) Code/1.53.2 Chrome/87.0.4280.141 Electron/11.2.1 Safari/537.36" etag="JBB7fVUd1Vm6mZC-no-t" version="14.2.4" type="embed" pages="3">
    <diagram id="n3GapYnbR-FYtXMA-dHB" name="Context">
        <mxGraphModel dx="752" dy="269" grid="1" gridSize="10" guides="1" tooltips="1" connect="1" arrows="1" fold="1" page="1" pageScale="1" pageWidth="827" pageHeight="1169" math="0" shadow="0">
            <root>
                <mxCell id="0"/>
                <mxCell id="1" parent="0"/>
                <mxCell id="FMKCjq244m-xKd3aBO3e-7" value="" style="rounded=1;whiteSpace=wrap;html=1;shadow=1;glass=0;sketch=0;strokeColor=#999999;gradientColor=#ffffff;" parent="1" vertex="1">
                    <mxGeometry x="10" y="20" width="790" height="640" as="geometry"/>
                </mxCell>
                <mxCell id="AGmQTdbqnwTCSsMr-Y1K-1" value="&lt;b&gt;ToDo List Online System&lt;/b&gt;&lt;br&gt;[Software System]&lt;br&gt;&lt;br&gt;Allows the user to create, edit, delete ToDo Items and ability to move items to cards :Things To Do, Doing, Done." style="whiteSpace=wrap;html=1;aspect=fixed;fillColor=#dae8fc;strokeColor=#6c8ebf;" parent="1" vertex="1">
                    <mxGeometry x="230" y="316" width="200" height="200" as="geometry"/>
                </mxCell>
                <mxCell id="AGmQTdbqnwTCSsMr-Y1K-3" value="T&lt;b style=&quot;line-height: 80%&quot;&gt;oDo List user&lt;/b&gt;&lt;br&gt;[Person]&lt;br&gt;&lt;br&gt;A user that adds or edits a ToDo list&amp;nbsp;" style="shape=actor;whiteSpace=wrap;html=1;fillColor=#1ba1e2;strokeColor=#006EAF;fontColor=#ffffff;align=center;verticalAlign=bottom;" parent="1" vertex="1">
                    <mxGeometry x="235" y="50" width="190" height="166" as="geometry"/>
                </mxCell>
                <mxCell id="AGmQTdbqnwTCSsMr-Y1K-4" value="External Trello API&lt;br&gt;[Software System]&lt;br&gt;&lt;br&gt;&lt;span style=&quot;color: rgb(77 , 81 , 86) ; text-align: left&quot;&gt;&lt;font style=&quot;font-size: 12px&quot;&gt;Trello web-based, Kanban-style, list-making application&lt;br&gt;&lt;/font&gt;&lt;/span&gt;&lt;span style=&quot;color: rgb(77 , 81 , 86) ; text-align: left&quot;&gt;&lt;font style=&quot;font-size: 12px&quot;&gt;This stores the user's to-do items&amp;nbsp;&lt;/font&gt;&lt;/span&gt;" style="shape=ext;double=1;whiteSpace=wrap;html=1;aspect=fixed;fillColor=#eeeeee;strokeColor=#36393d;" parent="1" vertex="1">
                    <mxGeometry x="610" y="317" width="180" height="180" as="geometry"/>
                </mxCell>
                <mxCell id="AGmQTdbqnwTCSsMr-Y1K-12" value="" style="endArrow=classic;html=1;dashed=1;dashPattern=1 4;strokeWidth=2;entryX=0.5;entryY=0;entryDx=0;entryDy=0;exitX=0.5;exitY=1;exitDx=0;exitDy=0;" parent="1" source="AGmQTdbqnwTCSsMr-Y1K-3" target="AGmQTdbqnwTCSsMr-Y1K-1" edge="1">
                    <mxGeometry relative="1" as="geometry">
                        <mxPoint x="460" y="276" as="sourcePoint"/>
                        <mxPoint x="360" y="276" as="targetPoint"/>
                    </mxGeometry>
                </mxCell>
                <mxCell id="AGmQTdbqnwTCSsMr-Y1K-13" value="View ToDo List and create new items on cards and move items to status cards" style="edgeLabel;resizable=0;html=1;align=center;verticalAlign=middle;" parent="AGmQTdbqnwTCSsMr-Y1K-12" connectable="0" vertex="1">
                    <mxGeometry relative="1" as="geometry"/>
                </mxCell>
                <mxCell id="AGmQTdbqnwTCSsMr-Y1K-14" value="Sends API call request" style="endArrow=classic;html=1;dashed=1;dashPattern=1 4;strokeWidth=2;entryX=0.009;entryY=0.544;entryDx=0;entryDy=0;exitX=1;exitY=0.5;exitDx=0;exitDy=0;entryPerimeter=0;startArrow=classic;startFill=1;" parent="1" source="AGmQTdbqnwTCSsMr-Y1K-1" target="AGmQTdbqnwTCSsMr-Y1K-4" edge="1">
                    <mxGeometry relative="1" as="geometry">
                        <mxPoint x="421" y="405.5" as="sourcePoint"/>
                        <mxPoint x="611" y="406" as="targetPoint"/>
                    </mxGeometry>
                </mxCell>
                <mxCell id="Yubm0SNs-u6JhAKq4_dP-1" value="&lt;font style=&quot;font-size: 16px&quot;&gt;System Context For ToDo Card List Online System&lt;/font&gt;&lt;br&gt;&lt;div&gt;&lt;span style=&quot;font-weight: normal&quot;&gt;&lt;font color=&quot;#808080&quot;&gt;The system context diagram from the ToDo Card system&lt;/font&gt;&lt;/span&gt;&lt;/div&gt;&lt;span&gt;&lt;span style=&quot;font-weight: normal&quot;&gt;&lt;font color=&quot;#808080&quot;&gt;Workspace last modified 02 Feb. 2021&lt;/font&gt;&lt;/span&gt;&lt;br&gt;&lt;/span&gt;&amp;nbsp;" style="text;html=1;align=left;verticalAlign=middle;resizable=0;points=[];autosize=1;fontStyle=1" parent="1" vertex="1">
                    <mxGeometry x="70" y="585" width="400" height="60" as="geometry"/>
                </mxCell>
                <mxCell id="UG7Kb_Q7UY1rBSkxmGML-1" value="" style="group" parent="1" vertex="1" connectable="0">
                    <mxGeometry x="54" y="681.88" width="720" height="160" as="geometry"/>
                </mxCell>
                <mxCell id="FMKCjq244m-xKd3aBO3e-6" value="" style="rounded=1;whiteSpace=wrap;html=1;gradientColor=#ffffff;glass=0;shadow=1;sketch=0;strokeColor=#999999;movable=1;resizable=1;rotatable=1;deletable=1;editable=1;connectable=1;" parent="UG7Kb_Q7UY1rBSkxmGML-1" vertex="1">
                    <mxGeometry width="720" height="160" as="geometry"/>
                </mxCell>
                <mxCell id="FMKCjq244m-xKd3aBO3e-4" value="Relationship" style="endArrow=classic;html=1;dashed=1;dashPattern=1 4;strokeWidth=2;fontStyle=1;movable=0;resizable=0;rotatable=0;deletable=0;editable=0;connectable=0;" parent="UG7Kb_Q7UY1rBSkxmGML-1" edge="1">
                    <mxGeometry x="-0.3368" y="5" relative="1" as="geometry">
                        <mxPoint x="476" y="79.5" as="sourcePoint"/>
                        <mxPoint x="666" y="79.5" as="targetPoint"/>
                        <mxPoint as="offset"/>
                    </mxGeometry>
                </mxCell>
                <mxCell id="FMKCjq244m-xKd3aBO3e-1" value="&lt;p style=&quot;line-height: 100%&quot;&gt;Person&lt;/p&gt;&lt;p style=&quot;line-height: 100%&quot;&gt;&lt;br&gt;&lt;/p&gt;" style="shape=actor;whiteSpace=wrap;html=1;fillColor=#1ba1e2;strokeColor=#006EAF;fontColor=#ffffff;align=center;verticalAlign=bottom;movable=1;resizable=1;rotatable=1;deletable=1;editable=1;connectable=1;" parent="UG7Kb_Q7UY1rBSkxmGML-1" vertex="1">
                    <mxGeometry x="26" y="14.370000000000005" width="100" height="123.75" as="geometry"/>
                </mxCell>
                <mxCell id="FMKCjq244m-xKd3aBO3e-2" value="Software System" style="whiteSpace=wrap;html=1;aspect=fixed;fillColor=#dae8fc;strokeColor=#6c8ebf;movable=1;resizable=1;rotatable=1;deletable=1;editable=1;connectable=1;" parent="UG7Kb_Q7UY1rBSkxmGML-1" vertex="1">
                    <mxGeometry x="166" y="21.870000000000005" width="116.25" height="116.25" as="geometry"/>
                </mxCell>
                <mxCell id="FMKCjq244m-xKd3aBO3e-3" value="Software System, Existing System&lt;br&gt;" style="shape=ext;double=1;whiteSpace=wrap;html=1;aspect=fixed;fillColor=#eeeeee;strokeColor=#36393d;movable=1;resizable=1;rotatable=1;deletable=1;editable=1;connectable=1;" parent="UG7Kb_Q7UY1rBSkxmGML-1" vertex="1">
                    <mxGeometry x="316" y="24.370000000000005" width="113.75" height="113.75" as="geometry"/>
                </mxCell>
            </root>
        </mxGraphModel>
    </diagram>
    <diagram id="xErkET7rtMsJFSKE_Moe" name="Container Diagram">
        &#xa;
        <mxGraphModel dx="1647" dy="575" grid="1" gridSize="10" guides="1" tooltips="1" connect="1" arrows="1" fold="1" page="1" pageScale="1" pageWidth="827" pageHeight="1169" math="0" shadow="0">
            &#xa;
            <root>
                &#xa;
                <mxCell id="L4NjMjJ0f7-46kwYplUy-0"/>
                &#xa;
                <mxCell id="L4NjMjJ0f7-46kwYplUy-1" parent="L4NjMjJ0f7-46kwYplUy-0"/>
                &#xa;
                <mxCell id="Xh3qZGssnWeRAxyG4f82-0" value="" style="rounded=1;whiteSpace=wrap;html=1;shadow=1;glass=0;sketch=0;strokeColor=#999999;gradientColor=#ffffff;" parent="L4NjMjJ0f7-46kwYplUy-1" vertex="1">
                    &#xa;
                    <mxGeometry x="-810" y="21" width="800" height="879" as="geometry"/>
                    &#xa;
                </mxCell>
                &#xa;
                <mxCell id="zSsKTHrQzFoxXYomV5-G-8" value="" style="rounded=1;whiteSpace=wrap;html=1;absoluteArcSize=1;arcSize=14;strokeWidth=2;align=center;dashed=1;movable=1;resizable=1;rotatable=1;deletable=1;editable=1;connectable=1;fillColor=#dae8fc;strokeColor=#6c8ebf;" parent="L4NjMjJ0f7-46kwYplUy-1" vertex="1">
                    &#xa;
                    <mxGeometry x="-800" y="244" width="568" height="520" as="geometry"/>
                    &#xa;
                </mxCell>
                &#xa;
                <mxCell id="Q1ftxMzklLhAA_6cFoSz-0" value="T&lt;b style=&quot;line-height: 80%&quot;&gt;oDo List user&lt;/b&gt;&lt;br&gt;[Person]&lt;br&gt;&lt;br&gt;A user that adds or edits a ToDo list&amp;nbsp;" style="shape=actor;whiteSpace=wrap;html=1;fillColor=#1ba1e2;strokeColor=#006EAF;fontColor=#ffffff;align=center;verticalAlign=bottom;" parent="L4NjMjJ0f7-46kwYplUy-1" vertex="1">
                    &#xa;
                    <mxGeometry x="-510" y="26" width="200" height="120" as="geometry"/>
                    &#xa;
                </mxCell>
                &#xa;
                <mxCell id="9PmutvT0oEzbYtgsCY2n-0" value="External Trello API&lt;br&gt;[Software System]&lt;br&gt;&lt;br&gt;&lt;span style=&quot;color: rgb(77 , 81 , 86) ; text-align: left&quot;&gt;&lt;font style=&quot;font-size: 12px&quot;&gt;Trello web-based, Kanban-style, list-making application&lt;br&gt;&lt;/font&gt;&lt;/span&gt;&lt;span style=&quot;color: rgb(77 , 81 , 86) ; text-align: left&quot;&gt;&lt;font style=&quot;font-size: 12px&quot;&gt;This stores the user's to-do items&amp;nbsp;&lt;/font&gt;&lt;/span&gt;" style="shape=ext;double=1;whiteSpace=wrap;html=1;aspect=fixed;fillColor=#eeeeee;strokeColor=#36393d;" parent="L4NjMjJ0f7-46kwYplUy-1" vertex="1">
                    &#xa;
                    <mxGeometry x="-193" y="345" width="180" height="180" as="geometry"/>
                    &#xa;
                </mxCell>
                &#xa;
                <mxCell id="I-s2TPx8t_a_GwVJdjx1-2" value="Gunicorn Web Server&lt;br&gt;[Container: WSGI Server]&lt;br&gt;&lt;br&gt;Python HTTP Web server gateway interface" style="rounded=1;whiteSpace=wrap;html=1;align=center;" parent="L4NjMjJ0f7-46kwYplUy-1" vertex="1">
                    &#xa;
                    <mxGeometry x="-780" y="285" width="180" height="90" as="geometry"/>
                    &#xa;
                </mxCell>
                &#xa;
                <mxCell id="I-s2TPx8t_a_GwVJdjx1-14" value="" style="endArrow=classic;html=1;dashed=1;dashPattern=1 4;strokeWidth=2;exitX=0.5;exitY=1;exitDx=0;exitDy=0;exitPerimeter=0;startArrow=classic;startFill=1;" parent="L4NjMjJ0f7-46kwYplUy-1" source="I-s2TPx8t_a_GwVJdjx1-1" edge="1">
                    &#xa;
                    <mxGeometry relative="1" as="geometry">
                        &#xa;
                        <mxPoint x="41" y="355" as="sourcePoint"/>
                        &#xa;
                        <mxPoint x="-374.89285714285734" y="645" as="targetPoint"/>
                        &#xa;
                    </mxGeometry>
                    &#xa;
                </mxCell>
                &#xa;
                <mxCell id="I-s2TPx8t_a_GwVJdjx1-15" value="Fetching Response" style="edgeLabel;resizable=0;html=1;align=center;verticalAlign=middle;" parent="I-s2TPx8t_a_GwVJdjx1-14" connectable="0" vertex="1">
                    &#xa;
                    <mxGeometry relative="1" as="geometry"/>
                    &#xa;
                </mxCell>
                &#xa;
                <mxCell id="zSsKTHrQzFoxXYomV5-G-0" value="" style="endArrow=classic;html=1;dashed=1;dashPattern=1 4;strokeWidth=2;exitX=1;exitY=0.25;exitDx=0;exitDy=0;entryX=0;entryY=0.25;entryDx=0;entryDy=0;" parent="L4NjMjJ0f7-46kwYplUy-1" edge="1" target="Q1ftxMzklLhAA_6cFoSz-1" source="I-s2TPx8t_a_GwVJdjx1-2">
                    &#xa;
                    <mxGeometry relative="1" as="geometry">
                        &#xa;
                        <mxPoint x="-631" y="285" as="sourcePoint"/>
                        &#xa;
                        <mxPoint x="-464" y="285" as="targetPoint"/>
                        &#xa;
                    </mxGeometry>
                    &#xa;
                </mxCell>
                &#xa;
                <mxCell id="zSsKTHrQzFoxXYomV5-G-1" value="Request" style="edgeLabel;resizable=0;html=1;align=center;verticalAlign=middle;" parent="zSsKTHrQzFoxXYomV5-G-0" connectable="0" vertex="1">
                    &#xa;
                    <mxGeometry relative="1" as="geometry">
                        &#xa;
                        <mxPoint x="15" as="offset"/>
                        &#xa;
                    </mxGeometry>
                    &#xa;
                </mxCell>
                &#xa;
                <mxCell id="zSsKTHrQzFoxXYomV5-G-2" value="" style="endArrow=classic;html=1;dashed=1;dashPattern=1 4;strokeWidth=2;entryX=1;entryY=0.75;entryDx=0;entryDy=0;exitX=0;exitY=0.75;exitDx=0;exitDy=0;" parent="L4NjMjJ0f7-46kwYplUy-1" source="Q1ftxMzklLhAA_6cFoSz-1" edge="1" target="I-s2TPx8t_a_GwVJdjx1-2">
                    &#xa;
                    <mxGeometry relative="1" as="geometry">
                        &#xa;
                        <mxPoint x="-522" y="315" as="sourcePoint"/>
                        &#xa;
                        <mxPoint x="-712" y="315" as="targetPoint"/>
                        &#xa;
                    </mxGeometry>
                    &#xa;
                </mxCell>
                &#xa;
                <mxCell id="zSsKTHrQzFoxXYomV5-G-3" value="Response" style="edgeLabel;resizable=0;html=1;align=center;verticalAlign=middle;" parent="zSsKTHrQzFoxXYomV5-G-2" connectable="0" vertex="1">
                    &#xa;
                    <mxGeometry relative="1" as="geometry"/>
                    &#xa;
                </mxCell>
                &#xa;
                <mxCell id="Q1ftxMzklLhAA_6cFoSz-1" value="Web Application&lt;br&gt;[Container: Flask application]&lt;br&gt;&lt;br&gt;Delivers the HTML content for the application" style="rounded=0;whiteSpace=wrap;html=1;align=center;" parent="L4NjMjJ0f7-46kwYplUy-1" vertex="1">
                    &#xa;
                    <mxGeometry x="-455" y="280" width="160" height="100" as="geometry"/>
                    &#xa;
                </mxCell>
                &#xa;
                <mxCell id="JGvzkRnRlpoqwweHrUdk-3" value="" style="endArrow=classic;html=1;dashed=1;dashPattern=1 4;strokeWidth=2;entryX=0.5;entryY=0;entryDx=0;entryDy=0;exitX=0.421;exitY=1.022;exitDx=0;exitDy=0;startArrow=classic;startFill=1;exitPerimeter=0;edgeStyle=orthogonalEdgeStyle;" parent="L4NjMjJ0f7-46kwYplUy-1" source="Q1ftxMzklLhAA_6cFoSz-0" target="I-s2TPx8t_a_GwVJdjx1-2" edge="1">
                    &#xa;
                    <mxGeometry relative="1" as="geometry">
                        &#xa;
                        <mxPoint x="-672" y="186" as="sourcePoint"/>
                        &#xa;
                        <mxPoint x="-572" y="186" as="targetPoint"/>
                        &#xa;
                        <Array as="points">
                            &#xa;
                            <mxPoint x="-426" y="186"/>
                            &#xa;
                            <mxPoint x="-690" y="186"/>
                            &#xa;
                        </Array>
                        &#xa;
                    </mxGeometry>
                    &#xa;
                </mxCell>
                &#xa;
                <mxCell id="JGvzkRnRlpoqwweHrUdk-4" value="Visit http://localhost:5000&lt;br&gt;Create ToDo Items&amp;nbsp;&lt;br&gt;Move ToDo Items&lt;br&gt;Delete ToDo Items&lt;br&gt;Move Items to Cards:&amp;nbsp;&lt;br&gt;Things To Do&lt;br&gt;Doing&lt;br&gt;Done" style="edgeLabel;resizable=0;html=1;align=center;verticalAlign=middle;" parent="JGvzkRnRlpoqwweHrUdk-3" connectable="0" vertex="1">
                    &#xa;
                    <mxGeometry relative="1" as="geometry"/>
                    &#xa;
                </mxCell>
                &#xa;
                <mxCell id="JGvzkRnRlpoqwweHrUdk-5" value="" style="endArrow=classic;html=1;dashed=1;dashPattern=1 4;strokeWidth=2;startArrow=classic;startFill=1;edgeStyle=orthogonalEdgeStyle;exitX=1.032;exitY=0.404;exitDx=0;exitDy=0;exitPerimeter=0;" parent="L4NjMjJ0f7-46kwYplUy-1" edge="1">
                    &#xa;
                    <mxGeometry relative="1" as="geometry">
                        &#xa;
                        <mxPoint x="-289.99999999999994" y="627.5200000000001" as="sourcePoint"/>
                        &#xa;
                        <mxPoint x="-100" y="530" as="targetPoint"/>
                        &#xa;
                        <Array as="points">
                            &#xa;
                            <mxPoint x="-99.44" y="627.12"/>
                            &#xa;
                        </Array>
                        &#xa;
                    </mxGeometry>
                    &#xa;
                </mxCell>
                &#xa;
                <mxCell id="JGvzkRnRlpoqwweHrUdk-7" value="Making API Calls&lt;br&gt;with Trello authentication key" style="edgeLabel;html=1;align=center;verticalAlign=middle;resizable=0;points=[];" parent="JGvzkRnRlpoqwweHrUdk-5" vertex="1" connectable="0">
                    &#xa;
                    <mxGeometry x="0.4775" y="-1" relative="1" as="geometry">
                        &#xa;
                        <mxPoint as="offset"/>
                        &#xa;
                    </mxGeometry>
                    &#xa;
                </mxCell>
                &#xa;
                <mxCell id="bE7UiUblU_folwuVREfk-0" value="&lt;font style=&quot;font-size: 16px&quot;&gt;Container Diagram For ToDo Card List Online System&lt;/font&gt;&lt;br&gt;&lt;div&gt;&lt;span style=&quot;font-weight: normal&quot;&gt;&lt;font color=&quot;#808080&quot;&gt;The container diagram from the ToDo Card system&lt;/font&gt;&lt;/span&gt;&lt;/div&gt;&lt;span&gt;&lt;span style=&quot;font-weight: normal&quot;&gt;&lt;font color=&quot;#808080&quot;&gt;Workspace last modified 02 Feb. 2021&lt;/font&gt;&lt;/span&gt;&lt;br&gt;&lt;/span&gt;&amp;nbsp;" style="text;html=1;align=left;verticalAlign=middle;resizable=0;points=[];autosize=1;fontStyle=1" parent="L4NjMjJ0f7-46kwYplUy-1" vertex="1">
                    &#xa;
                    <mxGeometry x="-770" y="800" width="420" height="60" as="geometry"/>
                    &#xa;
                </mxCell>
                &#xa;
                <mxCell id="hYIvrhNPlaVciSYuknuK-0" value="" style="group" parent="L4NjMjJ0f7-46kwYplUy-1" vertex="1" connectable="0">
                    &#xa;
                    <mxGeometry x="-773" y="930" width="720" height="220" as="geometry"/>
                    &#xa;
                </mxCell>
                &#xa;
                <mxCell id="hYIvrhNPlaVciSYuknuK-1" value="" style="rounded=1;whiteSpace=wrap;html=1;gradientColor=#ffffff;glass=0;shadow=1;sketch=0;strokeColor=#999999;movable=1;resizable=1;rotatable=1;deletable=1;editable=1;connectable=1;" parent="hYIvrhNPlaVciSYuknuK-0" vertex="1">
                    &#xa;
                    <mxGeometry width="720" height="220" as="geometry"/>
                    &#xa;
                </mxCell>
                &#xa;
                <mxCell id="hYIvrhNPlaVciSYuknuK-2" value="Relationship" style="endArrow=classic;html=1;dashed=1;dashPattern=1 4;strokeWidth=2;fontStyle=1;movable=0;resizable=0;rotatable=0;deletable=0;editable=0;connectable=0;" parent="hYIvrhNPlaVciSYuknuK-0" edge="1">
                    &#xa;
                    <mxGeometry x="-0.3368" y="5" relative="1" as="geometry">
                        &#xa;
                        <mxPoint x="476" y="109.3125" as="sourcePoint"/>
                        &#xa;
                        <mxPoint x="666" y="109.3125" as="targetPoint"/>
                        &#xa;
                        <mxPoint as="offset"/>
                        &#xa;
                    </mxGeometry>
                    &#xa;
                </mxCell>
                &#xa;
                <mxCell id="hYIvrhNPlaVciSYuknuK-3" value="&lt;p style=&quot;line-height: 100%&quot;&gt;Person&lt;/p&gt;&lt;p style=&quot;line-height: 100%&quot;&gt;&lt;br&gt;&lt;/p&gt;" style="shape=actor;whiteSpace=wrap;html=1;fillColor=#1ba1e2;strokeColor=#006EAF;fontColor=#ffffff;align=center;verticalAlign=bottom;movable=1;resizable=1;rotatable=1;deletable=1;editable=1;connectable=1;" parent="hYIvrhNPlaVciSYuknuK-0" vertex="1">
                    &#xa;
                    <mxGeometry x="26" y="19.76" width="84" height="120.24" as="geometry"/>
                    &#xa;
                </mxCell>
                &#xa;
                <mxCell id="hYIvrhNPlaVciSYuknuK-4" value="Software System" style="whiteSpace=wrap;html=1;aspect=fixed;fillColor=#dae8fc;strokeColor=#6c8ebf;movable=1;resizable=1;rotatable=1;deletable=1;editable=1;connectable=1;" parent="hYIvrhNPlaVciSYuknuK-0" vertex="1">
                    &#xa;
                    <mxGeometry x="166" y="30.07" width="99.93" height="99.93" as="geometry"/>
                    &#xa;
                </mxCell>
                &#xa;
                <mxCell id="hYIvrhNPlaVciSYuknuK-5" value="Software System, Existing System&lt;br&gt;" style="shape=ext;double=1;whiteSpace=wrap;html=1;aspect=fixed;fillColor=#eeeeee;strokeColor=#36393d;movable=1;resizable=1;rotatable=1;deletable=1;editable=1;connectable=1;" parent="hYIvrhNPlaVciSYuknuK-0" vertex="1">
                    &#xa;
                    <mxGeometry x="316" y="33.51" width="96.49" height="96.49" as="geometry"/>
                    &#xa;
                </mxCell>
                &#xa;
                <mxCell id="0eR4z9R_yX9ST1LBabTA-0" value="ToDo Card List system&lt;br&gt;[Software System]" style="rounded=1;whiteSpace=wrap;html=1;absoluteArcSize=1;arcSize=14;strokeWidth=2;align=center;dashed=1;movable=1;resizable=1;rotatable=1;deletable=1;editable=1;connectable=1;fillColor=#dae8fc;strokeColor=#6c8ebf;" parent="hYIvrhNPlaVciSYuknuK-0" vertex="1">
                    &#xa;
                    <mxGeometry x="155" y="150" width="161" height="60" as="geometry"/>
                    &#xa;
                </mxCell>
                &#xa;
                <mxCell id="I-s2TPx8t_a_GwVJdjx1-1" value="Flask web application code&lt;br&gt;[Container: Flask, Python 3]&lt;br&gt;&lt;br&gt;Python Web Service" style="rounded=1;whiteSpace=wrap;html=1;align=center;" parent="L4NjMjJ0f7-46kwYplUy-1" vertex="1">
                    &#xa;
                    <mxGeometry x="-460" y="570" width="170" height="100" as="geometry"/>
                    &#xa;
                </mxCell>
                &#xa;
                <mxCell id="gR0pa8iSx_MhsYLl48Li-0" value="" style="endArrow=classic;html=1;dashed=1;dashPattern=1 4;strokeWidth=2;exitX=0.5;exitY=1;exitDx=0;exitDy=0;startArrow=classic;startFill=1;" edge="1" parent="L4NjMjJ0f7-46kwYplUy-1" source="Q1ftxMzklLhAA_6cFoSz-1" target="I-s2TPx8t_a_GwVJdjx1-1">
                    &#xa;
                    <mxGeometry relative="1" as="geometry">
                        &#xa;
                        <mxPoint x="-375" y="355" as="sourcePoint"/>
                        &#xa;
                        <mxPoint x="-374.89285714285734" y="645" as="targetPoint"/>
                        &#xa;
                    </mxGeometry>
                    &#xa;
                </mxCell>
                &#xa;
                <mxCell id="gR0pa8iSx_MhsYLl48Li-1" value="Fetching Response" style="edgeLabel;resizable=0;html=1;align=center;verticalAlign=middle;" connectable="0" vertex="1" parent="gR0pa8iSx_MhsYLl48Li-0">
                    &#xa;
                    <mxGeometry relative="1" as="geometry"/>
                    &#xa;
                </mxCell>
                &#xa;
            </root>
            &#xa;
        </mxGraphModel>
        &#xa;
    </diagram>
    <diagram name="Components Diagram" id="sfZA-25T3U-cCX6TC-lT">
        <mxGraphModel dx="1579" dy="269" grid="1" gridSize="10" guides="1" tooltips="1" connect="1" arrows="1" fold="1" page="1" pageScale="1" pageWidth="827" pageHeight="1169" math="0" shadow="0">
            <root>
                <mxCell id="As04K5n8PBJ5nR_ZB60L-0"/>
                <mxCell id="As04K5n8PBJ5nR_ZB60L-1" parent="As04K5n8PBJ5nR_ZB60L-0"/>
                <mxCell id="CeJth6JvwgnHCSDi0SEC-0" value="" style="rounded=1;whiteSpace=wrap;html=1;shadow=1;glass=0;sketch=0;strokeColor=#999999;gradientColor=#ffffff;" parent="As04K5n8PBJ5nR_ZB60L-1" vertex="1">
                    <mxGeometry x="-817" y="21" width="800" height="879" as="geometry"/>
                </mxCell>
                <mxCell id="As04K5n8PBJ5nR_ZB60L-2" value="" style="rounded=1;whiteSpace=wrap;html=1;absoluteArcSize=1;arcSize=14;strokeWidth=2;align=center;dashed=1;movable=1;resizable=1;rotatable=1;deletable=1;editable=1;connectable=1;fillColor=#dae8fc;strokeColor=#6c8ebf;" parent="As04K5n8PBJ5nR_ZB60L-1" vertex="1">
                    <mxGeometry x="-812" y="239" width="580" height="520" as="geometry"/>
                </mxCell>
                <mxCell id="As04K5n8PBJ5nR_ZB60L-4" value="External Trello API&lt;br&gt;[Software System]&lt;br&gt;&lt;br&gt;&lt;span style=&quot;color: rgb(77 , 81 , 86) ; text-align: left&quot;&gt;&lt;font style=&quot;font-size: 12px&quot;&gt;Trello web-based, Kanban-style, list-making application&lt;br&gt;&lt;/font&gt;&lt;/span&gt;&lt;span style=&quot;color: rgb(77 , 81 , 86) ; text-align: left&quot;&gt;&lt;font style=&quot;font-size: 12px&quot;&gt;This stores the user's to-do items&amp;nbsp;&lt;/font&gt;&lt;/span&gt;" style="shape=ext;double=1;whiteSpace=wrap;html=1;aspect=fixed;fillColor=#eeeeee;strokeColor=#36393d;" parent="As04K5n8PBJ5nR_ZB60L-1" vertex="1">
                    <mxGeometry x="-208" y="339" width="180" height="180" as="geometry"/>
                </mxCell>
                <mxCell id="As04K5n8PBJ5nR_ZB60L-6" value="Flask web application code&lt;br&gt;[Container: Flask, Python 3]&lt;br&gt;&lt;br&gt;Python Web Service" style="rounded=1;whiteSpace=wrap;html=1;align=center;" parent="As04K5n8PBJ5nR_ZB60L-1" vertex="1">
                    <mxGeometry x="-570" y="40" width="170" height="100" as="geometry"/>
                </mxCell>
                <mxCell id="As04K5n8PBJ5nR_ZB60L-24" value="" style="endArrow=classic;html=1;dashed=1;dashPattern=1 4;strokeWidth=2;startArrow=classic;startFill=1;edgeStyle=orthogonalEdgeStyle;exitX=0.659;exitY=0.765;exitDx=0;exitDy=0;exitPerimeter=0;" parent="As04K5n8PBJ5nR_ZB60L-1" source="As04K5n8PBJ5nR_ZB60L-2" edge="1">
                    <mxGeometry relative="1" as="geometry">
                        <mxPoint x="-309.99999999999994" y="637.5200000000001" as="sourcePoint"/>
                        <mxPoint x="-120" y="520" as="targetPoint"/>
                        <Array as="points">
                            <mxPoint x="-120" y="637"/>
                        </Array>
                    </mxGeometry>
                </mxCell>
                <mxCell id="As04K5n8PBJ5nR_ZB60L-25" value="Making API Calls&lt;br&gt;with Trello authentication key" style="edgeLabel;html=1;align=center;verticalAlign=middle;resizable=0;points=[];" parent="As04K5n8PBJ5nR_ZB60L-24" vertex="1" connectable="0">
                    <mxGeometry x="0.4775" y="-1" relative="1" as="geometry">
                        <mxPoint as="offset"/>
                    </mxGeometry>
                </mxCell>
                <mxCell id="vPJ_F8qLeatVqzFexxDE-0" value="" style="endArrow=classic;html=1;dashed=1;dashPattern=1 4;strokeWidth=2;entryX=0.5;entryY=0;entryDx=0;entryDy=0;exitX=0.5;exitY=1;exitDx=0;exitDy=0;" parent="As04K5n8PBJ5nR_ZB60L-1" edge="1">
                    <mxGeometry relative="1" as="geometry">
                        <mxPoint x="-490" y="144" as="sourcePoint"/>
                        <mxPoint x="-490" y="244" as="targetPoint"/>
                    </mxGeometry>
                </mxCell>
                <mxCell id="vPJ_F8qLeatVqzFexxDE-1" value="View ToDo List and create new items on cards and move items to status cards" style="edgeLabel;resizable=0;html=1;align=center;verticalAlign=middle;" parent="vPJ_F8qLeatVqzFexxDE-0" connectable="0" vertex="1">
                    <mxGeometry relative="1" as="geometry"/>
                </mxCell>
                <mxCell id="ToXk1CggBr-7654ndJ3L-0" value="&lt;font style=&quot;font-size: 16px&quot;&gt;Components Diagram For ToDo Card List Online System&lt;/font&gt;&lt;br&gt;&lt;div&gt;&lt;span style=&quot;font-weight: normal&quot;&gt;&lt;font color=&quot;#808080&quot;&gt;The component diagram from the ToDo Card system&lt;/font&gt;&lt;/span&gt;&lt;/div&gt;&lt;span&gt;&lt;span style=&quot;font-weight: normal&quot;&gt;&lt;font color=&quot;#808080&quot;&gt;Workspace last modified 02 Feb. 2021&lt;/font&gt;&lt;/span&gt;&lt;br&gt;&lt;/span&gt;&amp;nbsp;" style="text;html=1;align=left;verticalAlign=middle;resizable=0;points=[];autosize=1;fontStyle=1" parent="As04K5n8PBJ5nR_ZB60L-1" vertex="1">
                    <mxGeometry x="-773" y="810" width="450" height="60" as="geometry"/>
                </mxCell>
                <mxCell id="pNgk-jizEE8WYyBqo6nS-0" value="" style="group" parent="As04K5n8PBJ5nR_ZB60L-1" vertex="1" connectable="0">
                    <mxGeometry x="-773" y="930" width="720" height="220" as="geometry"/>
                </mxCell>
                <mxCell id="pNgk-jizEE8WYyBqo6nS-1" value="" style="rounded=1;whiteSpace=wrap;html=1;gradientColor=#ffffff;glass=0;shadow=1;sketch=0;strokeColor=#999999;movable=1;resizable=1;rotatable=1;deletable=1;editable=1;connectable=1;" parent="pNgk-jizEE8WYyBqo6nS-0" vertex="1">
                    <mxGeometry width="720" height="220" as="geometry"/>
                </mxCell>
                <mxCell id="pNgk-jizEE8WYyBqo6nS-2" value="Relationship" style="endArrow=classic;html=1;dashed=1;dashPattern=1 4;strokeWidth=2;fontStyle=1;movable=0;resizable=0;rotatable=0;deletable=0;editable=0;connectable=0;" parent="pNgk-jizEE8WYyBqo6nS-0" edge="1">
                    <mxGeometry x="-0.3368" y="5" relative="1" as="geometry">
                        <mxPoint x="476" y="109.3125" as="sourcePoint"/>
                        <mxPoint x="666" y="109.3125" as="targetPoint"/>
                        <mxPoint as="offset"/>
                    </mxGeometry>
                </mxCell>
                <mxCell id="pNgk-jizEE8WYyBqo6nS-3" value="&lt;p style=&quot;line-height: 100%&quot;&gt;Person&lt;/p&gt;&lt;p style=&quot;line-height: 100%&quot;&gt;&lt;br&gt;&lt;/p&gt;" style="shape=actor;whiteSpace=wrap;html=1;fillColor=#1ba1e2;strokeColor=#006EAF;fontColor=#ffffff;align=center;verticalAlign=bottom;movable=1;resizable=1;rotatable=1;deletable=1;editable=1;connectable=1;" parent="pNgk-jizEE8WYyBqo6nS-0" vertex="1">
                    <mxGeometry x="26" y="19.76" width="94" height="140.24" as="geometry"/>
                </mxCell>
                <mxCell id="pNgk-jizEE8WYyBqo6nS-4" value="Software System" style="whiteSpace=wrap;html=1;aspect=fixed;fillColor=#dae8fc;strokeColor=#6c8ebf;movable=1;resizable=1;rotatable=1;deletable=1;editable=1;connectable=1;" parent="pNgk-jizEE8WYyBqo6nS-0" vertex="1">
                    <mxGeometry x="166" y="30.07" width="99.93" height="99.93" as="geometry"/>
                </mxCell>
                <mxCell id="pNgk-jizEE8WYyBqo6nS-5" value="Software System, Existing System&lt;br&gt;" style="shape=ext;double=1;whiteSpace=wrap;html=1;aspect=fixed;fillColor=#eeeeee;strokeColor=#36393d;movable=1;resizable=1;rotatable=1;deletable=1;editable=1;connectable=1;" parent="pNgk-jizEE8WYyBqo6nS-0" vertex="1">
                    <mxGeometry x="316" y="33.51" width="96.49" height="96.49" as="geometry"/>
                </mxCell>
                <mxCell id="FGEvVKVhqhVZhLoolFWv-0" value="ToDo Card List system&lt;br&gt;[Software System]" style="rounded=1;whiteSpace=wrap;html=1;absoluteArcSize=1;arcSize=14;strokeWidth=2;align=center;dashed=1;movable=1;resizable=1;rotatable=1;deletable=1;editable=1;connectable=1;fillColor=#dae8fc;strokeColor=#6c8ebf;" parent="As04K5n8PBJ5nR_ZB60L-1" vertex="1">
                    <mxGeometry x="-618" y="1080" width="161" height="60" as="geometry"/>
                </mxCell>
                <mxCell id="As04K5n8PBJ5nR_ZB60L-27" value="Trello API Consumer&lt;br&gt;Calls Interface to&amp;nbsp;https://api.trello.com" style="rounded=1;whiteSpace=wrap;html=1;dashed=1;align=center;" parent="As04K5n8PBJ5nR_ZB60L-1" vertex="1">
                    <mxGeometry x="-570" y="600" width="135" height="70" as="geometry"/>
                </mxCell>
                <mxCell id="As04K5n8PBJ5nR_ZB60L-32" value="Application Logic Components" style="rounded=1;whiteSpace=wrap;html=1;dashed=1;align=center;" parent="As04K5n8PBJ5nR_ZB60L-1" vertex="1">
                    <mxGeometry x="-570" y="425" width="130" height="75" as="geometry"/>
                </mxCell>
                <mxCell id="As04K5n8PBJ5nR_ZB60L-30" value="View Logic&lt;br&gt;&amp;nbsp;Components" style="rounded=1;whiteSpace=wrap;html=1;dashed=1;align=center;" parent="As04K5n8PBJ5nR_ZB60L-1" vertex="1">
                    <mxGeometry x="-570" y="280" width="125" height="65" as="geometry"/>
                </mxCell>
                <mxCell id="IqeiE7aHp-pCT260r_wu-0" value="" style="endArrow=classic;html=1;dashed=1;dashPattern=1 4;strokeWidth=2;entryX=0.5;entryY=0;entryDx=0;entryDy=0;exitX=0.5;exitY=1;exitDx=0;exitDy=0;startArrow=classic;startFill=1;" parent="As04K5n8PBJ5nR_ZB60L-1" source="As04K5n8PBJ5nR_ZB60L-30" target="As04K5n8PBJ5nR_ZB60L-32" edge="1">
                    <mxGeometry relative="1" as="geometry">
                        <mxPoint x="-242.52" y="545" as="sourcePoint"/>
                        <mxPoint x="-410" y="545.2" as="targetPoint"/>
                    </mxGeometry>
                </mxCell>
                <mxCell id="IqeiE7aHp-pCT260r_wu-4" value="" style="endArrow=classic;html=1;dashed=1;dashPattern=1 4;strokeWidth=2;entryX=0.5;entryY=0;entryDx=0;entryDy=0;startArrow=classic;startFill=1;exitX=0.5;exitY=1;exitDx=0;exitDy=0;" parent="As04K5n8PBJ5nR_ZB60L-1" source="As04K5n8PBJ5nR_ZB60L-32" target="As04K5n8PBJ5nR_ZB60L-27" edge="1">
                    <mxGeometry relative="1" as="geometry">
                        <mxPoint x="-482" y="475" as="sourcePoint"/>
                        <mxPoint x="-472" y="477" as="targetPoint"/>
                    </mxGeometry>
                </mxCell>
            </root>
        </mxGraphModel>
    </diagram>
</mxfile>